Coordinates
version=1
nRows=16
nColumns=40
inDegrees=yes

Units are S.I. units (second, meters, Newtons, ...)
Angles are in degrees.

endheader
time	pelvis_tilt	pelvis_list	pelvis_rotation	pelvis_tx	pelvis_ty	pelvis_tz	hip_flexion_r	hip_adduction_r	hip_rotation_r	knee_angle_r	knee_angle_r_beta	ankle_angle_r	subtalar_angle_r	mtp_angle_r	hip_flexion_l	hip_adduction_l	hip_rotation_l	knee_angle_l	knee_angle_l_beta	ankle_angle_l	subtalar_angle_l	mtp_angle_l	lumbar_extension	lumbar_bending	lumbar_rotation	arm_flex_r	arm_add_r	arm_rot_r	elbow_flex_r	pro_sup_r	wrist_flex_r	wrist_dev_r	arm_flex_l	arm_add_l	arm_rot_l	elbow_flex_l	pro_sup_l	wrist_flex_l	wrist_dev_l
      2.35000000	      3.87104874	      2.72118370	     -5.93376258	      0.66859573	      0.90429267	     -1.49623320	     13.03606867	     -5.86610762	     -4.92006787	    -56.98854043	     -0.99463767	     -0.54207145	    -12.91609444	      9.67042474	      1.09316942	     -5.98187665	     14.19546846	    -12.54829842	     -0.21900912	      4.83965283	     -7.36131610	     -4.40426758	     -8.36598890	     -1.44111029	     -0.48816024	      7.61423508	     -7.71293160	     16.07679398	     12.89193957	     89.95437384	      0.00000000	      0.00000000	     10.64708119	     11.26161518	    -22.65392154	     18.30979836	     89.95437384	      0.00000000	      0.00000000
      2.36000000	      4.51557463	      2.42097819	     -5.77417963	      0.67645910	      0.90557606	     -1.49670298	     12.96715285	     -5.40512130	     -5.05680469	    -55.83241996	     -0.97445956	      0.69993989	    -11.71240178	      8.55350672	     -0.55457349	     -5.87992264	     13.84551607	    -11.91715954	     -0.20799367	      4.94188223	     -7.65247427	     -4.28634758	     -9.01907455	     -1.10948891	     -0.84154650	      7.28460657	     -8.08329707	     17.29627417	     13.17735898	     89.95437384	      0.00000000	      0.00000000	     11.25416662	     11.37635565	    -21.33673705	     18.81398955	     89.95437384	      0.00000000	      0.00000000
      2.37000000	      4.36452040	      2.40312394	     -5.63472527	      0.68351927	      0.90538639	     -1.49734266	     14.09872171	     -5.19945202	     -5.19102400	    -54.96768145	     -0.95936702	      1.20079763	    -11.55863455	      8.32803338	     -0.93106641	     -5.93699137	     13.79887005	    -11.87174250	     -0.20720099	      5.21292922	     -7.64341728	     -4.27539563	     -8.77844484	     -1.01278666	     -1.05011312	      6.92777194	     -8.24180843	     17.34340844	     13.18945674	     89.95437384	      0.00000000	      0.00000000	     11.90357761	     11.62616825	    -21.06758979	     19.33332845	     89.95437384	      0.00000000	      0.00000000
      2.38000000	      4.21284588	      2.35723070	     -5.45716589	      0.69048724	      0.90512349	     -1.49792585	     15.17006817	     -4.95297178	     -5.33448389	    -53.90360689	     -0.94079542	      1.81759938	    -11.35920276	      8.09675704	     -1.31246323	     -5.96144837	     13.70743386	    -11.78531087	     -0.20569248	      5.55191564	     -7.68580814	     -4.28004796	     -8.57565594	     -0.87517814	     -1.27463787	      6.58304191	     -8.42081421	     17.35249272	     13.28205181	     89.95437384	      0.00000000	      0.00000000	     12.51979509	     11.86829732	    -20.72853293	     19.91824184	     89.95437384	      0.00000000	      0.00000000
      2.39000000	      4.45130462	      1.91771523	     -5.16741355	      0.69751044	      0.90555320	     -1.49837459	     15.52905442	     -4.29242392	     -5.67494521	    -52.42105370	     -0.91491998	      2.95825160	    -10.98235873	      7.56297525	     -2.22746346	     -5.57253495	     13.25253965	    -11.61320975	     -0.20268875	      5.98443535	     -8.03664625	     -4.33188164	     -8.89567187	     -0.33212611	     -1.66976324	      6.33555472	     -8.63178230	     17.38242552	     13.45648711	     89.95437384	      0.00000000	      0.00000000	     13.04614919	     12.02722342	    -19.59005004	     20.67939076	     89.95437384	      0.00000000	      0.00000000
      2.40000000	      4.32559749	      2.03751571	     -5.08444934	      0.70381992	      0.90511182	     -1.49880483	     16.70681984	     -4.34509551	     -5.93945269	    -51.36641597	     -0.89651308	      3.06596054	    -10.69047845	      7.41713871	     -2.43252002	     -5.74056372	     13.33562230	    -11.80857904	     -0.20609858	      6.09195841	     -7.88003295	     -4.29118884	     -8.81649444	     -0.41841355	     -1.81244870	      6.08042102	     -8.75444544	     17.33263727	     13.64034119	     89.95437384	      0.00000000	      0.00000000	     13.77286733	     12.26970814	    -19.32107393	     21.25070199	     89.95437384	      0.00000000	      0.00000000
      2.41000000	      4.81171171	      1.37212576	     -4.62647679	      0.71179635	      0.90599368	     -1.49927573	     16.28607682	     -3.57405152	     -6.75089361	    -49.07819149	     -0.85657603	      3.53795674	    -10.63691431	      7.01287759	     -3.78931365	     -5.09318592	     13.08418256	    -11.43476463	     -0.19957429	      6.75685407	     -8.44457531	     -4.41266262	     -9.28611124	      0.38688205	     -2.39083747	      5.84305992	     -8.91450210	     17.30011217	     13.63976191	     89.95437384	      0.00000000	      0.00000000	     14.17572045	     12.25441706	    -17.86684139	     21.79104729	     89.95437384	      0.00000000	      0.00000000
      2.42000000	      4.60278998	      1.51664143	     -4.59562040	      0.71847392	      0.90530362	     -1.49964016	     17.40070018	     -3.68635867	     -7.16144147	    -47.70977955	     -0.83269274	      3.81386136	    -10.44614051	      6.88948551	     -4.00668983	     -5.30633298	     13.17713449	    -11.49276107	     -0.20058652	      6.92603569	     -8.36673503	     -4.39385794	     -9.04369771	      0.31133376	     -2.40345380	      5.53924639	     -9.05128922	     17.26122297	     13.69085467	     89.95437384	      0.00000000	      0.00000000	     14.79467934	     12.39773559	    -17.63037174	     22.33969084	     89.95437384	      0.00000000	      0.00000000
      2.43000000	      5.17861519	      1.04520129	     -4.16520077	      0.72625875	      0.90610949	     -1.50008872	     16.94857977	     -3.21889380	     -8.08801023	    -45.47811932	     -0.79374292	      4.39298576	    -10.16804371	      6.31109675	     -5.42089561	     -4.83843031	     13.06490342	    -11.13716091	     -0.19438013	      7.23611456	     -8.90915545	     -4.47900901	     -9.63829025	      0.88880529	     -2.92464675	      5.30755122	     -9.17958018	     17.21171716	     13.78433990	     89.95437384	      0.00000000	      0.00000000	     15.20234881	     12.39322380	    -16.37269542	     22.94130133	     89.95437384	      0.00000000	      0.00000000
      2.44000000	      5.26960391	      0.92242633	     -4.17490032	      0.73367788	      0.90592537	     -1.49978355	     17.37225185	     -2.95695113	     -8.48524993	    -43.74100963	     -0.76342464	      4.97812544	     -9.95746547	      5.99340092	     -6.26225901	     -4.77562369	     13.01935788	    -10.78444664	     -0.18822410	      7.45685234	     -9.22240539	     -4.50970442	     -9.68182342	      1.02634654	     -2.93310170	      4.97490472	     -9.23551145	     17.05530077	     13.83148549	     89.95437384	      0.00000000	      0.00000000	     15.60354713	     12.56457008	    -15.99516658	     23.66948312	     89.95437384	      0.00000000	      0.00000000
      2.45000000	      5.03492261	      1.07522869	     -4.02010713	      0.73999277	      0.90498187	     -1.50021264	     18.39301267	     -3.16422178	     -9.25925707	    -42.24933981	     -0.73739009	      5.05441197	     -9.78513849	      5.91733329	     -6.40739350	     -4.96012785	     13.07708193	    -10.84877251	     -0.18934680	      7.64966700	     -9.16666923	     -4.50882334	     -9.46738324	      0.95272453	     -3.03119949	      4.73396860	     -9.30866882	     17.02253269	     13.83832128	     89.95437384	      0.00000000	      0.00000000	     16.20943807	     12.64729944	    -15.86505838	     24.17948021	     89.95437384	      0.00000000	      0.00000000
      2.46000000	      5.12665637	      0.75850679	     -3.44812330	      0.74703929	      0.90478423	     -1.50074261	     18.55775664	     -2.98374648	    -10.62724674	    -40.18167378	     -0.70130251	      4.68932076	     -9.33479862	      5.74967894	     -7.05591878	     -4.59749175	     12.50531138	    -10.81943366	     -0.18883474	      8.00610483	     -9.43097940	     -4.58766491	     -9.58646098	      1.40992836	     -3.61131869	      4.49748258	     -9.37527455	     16.84380068	     14.02753699	     89.95437384	      0.00000000	      0.00000000	     16.56508649	     12.79838830	    -15.57853521	     24.99568233	     89.95437384	      0.00000000	      0.00000000
      2.47000000	      4.93255004	      0.99940588	     -3.49653641	      0.75384475	      0.90376147	     -1.50073206	     19.40763087	     -3.26752221	    -11.36547445	    -38.63210548	     -0.67425744	      4.75344766	     -9.16340464	      5.70520539	     -7.35734393	     -4.88873933	     12.67898045	    -10.76391617	     -0.18786578	      8.25435670	     -9.41253221	     -4.59919480	     -9.33367377	      1.20171680	     -3.48849721	      4.24583830	     -9.40328349	     16.80549989	     13.92640099	     89.95437384	      0.00000000	      0.00000000	     17.05945636	     12.84347153	    -15.48949240	     25.52258884	     89.95437384	      0.00000000	      0.00000000
      2.48000000	      5.47178793	      0.60411587	     -3.08234045	      0.76119534	      0.90422861	     -1.50079220	     18.86140399	     -3.05579464	    -13.09768281	    -36.31375225	     -0.63379454	      4.02774650	     -8.23807083	      5.34427095	     -8.66450144	     -4.45616118	     12.44682101	    -10.45313402	     -0.18244161	      8.48671159	     -9.70987147	     -4.66355265	     -9.96415281	      1.68812597	     -3.85310119	      4.08368355	     -9.37758215	     16.27031554	     13.94766282	     89.95437384	      0.00000000	      0.00000000	     17.38544745	     12.97330829	    -15.35437283	     26.39265053	     89.95437384	      0.00000000	      0.00000000
      2.49000000	      5.18880992	      0.87867874	     -3.22451502	      0.76790075	      0.90299446	     -1.50062428	     19.81706246	     -3.36254001	    -13.94089294	    -34.87956442	     -0.60876324	      3.82730535	     -8.03836085	      5.32678239	     -8.84448186	     -4.80666751	     12.60873228	    -10.41909157	     -0.18184745	      8.67025680	     -9.66894574	     -4.66892585	     -9.63806442	      1.43872313	     -3.63232194	      3.82157502	     -9.38789113	     16.25234888	     13.86138935	     89.95437384	      0.00000000	      0.00000000	     17.77120341	     12.97167763	    -15.28855132	     26.98070028	     89.95437384	      0.00000000	      0.00000000
      2.50000000	      5.16681463	      0.76902968	     -2.97791665	      0.77483890	      0.90236811	     -1.50055577	     20.06221325	     -3.38708104	    -15.40608008	    -32.84129146	     -0.57318867	      2.31538721	     -7.06788433	      5.24508402	     -9.34423235	     -4.64458914	     12.35499878	    -10.41922167	     -0.18184972	      8.90403068	     -9.86797865	     -4.72951965	     -9.64823158	      1.62338139	     -3.86181050	      3.62745534	     -9.35892471	     15.93709795	     13.94000061	     89.95437384	      0.00000000	      0.00000000	     17.91256513	     13.13119062	    -15.24684106	     27.97615314	     89.95437384	      0.00000000	      0.00000000
